<svg width="100%" height="100%" viewBox="0 0 500 500" fill="none" xmlns="http://www.w3.org/2000/svg">
    <path d="M200.297 69.1563C262.403 30.9041 343.867 62.477 363.973 132.592L377.77 180.706C380.824 191.354 387.355 200.674 396.322 207.178C433.959 234.478 416.71 293.905 370.306 296.813L329.907 299.344C308.422 300.69 289.046 312.725 278.315 331.386L258.896 365.16C239.03 399.709 201.401 420.125 161.608 417.944C83.2374 413.65 36.7952 328.372 75.7053 260.208L162.394 108.344C171.546 92.3124 184.579 78.8371 200.297 69.1563Z" fill="rgb(var(--vmu-color-secondary-container))" />
    <path d="M274.261 441.893C263.489 460.588 236.511 460.588 225.739 441.893L62.0108 157.729C51.2555 139.062 64.7284 115.75 86.2718 115.75H413.728C435.272 115.75 448.744 139.062 437.989 157.729L274.261 441.893Z" fill="rgb(var(--vmu-color-on-secondary-container))" />
    <path d="M352.271 379.81C341.503 398.527 314.497 398.527 303.729 379.81L232.628 256.212C221.89 237.545 235.363 214.25 256.898 214.25H399.102C420.637 214.25 434.11 237.545 423.372 256.212L352.271 379.81Z" fill="rgb(var(--vmu-color-primary))" />
</svg>